name Walk9.mot
datacolumns 19
datarows 25
range 3.24500000 3.36500000
endheader

                time	   L_ground_force_vx	   L_ground_force_vy	   L_ground_force_vz	   L_ground_force_px	   L_ground_force_py	   L_ground_force_pz	   R_ground_force_vx	   R_ground_force_vy	   R_ground_force_vz	   R_ground_force_px	   R_ground_force_py	   R_ground_force_pz	   L_ground_torque_x	   L_ground_torque_y	   L_ground_torque_z	   R_ground_torque_x	   R_ground_torque_y	   R_ground_torque_z	
          3.24500000	          0.03696504	          0.09146484	         -0.00428953	         -0.00016955	          0.00000000	         -0.00005905	        -16.28698355	        747.01003016	        -52.62856795	          0.31744928	          0.00000000	          0.13609713	          0.00000000	          0.00015467	          0.00000000	          0.00000000	          6.57489851	          0.00000000	
          3.25000000	          0.02466830	          0.05524805	         -0.00391013	         -0.00013609	          0.00000000	         -0.00004799	        -15.28193499	        744.05439775	        -51.88733046	          0.31903154	          0.00000000	          0.13657693	          0.00000000	          0.00010935	          0.00000000	          0.00000000	          6.33300421	          0.00000000	
          3.25500000	          0.01483168	          0.02765347	         -0.00335759	         -0.00010386	          0.00000000	         -0.00003710	        -14.31186976	        741.19169864	        -51.24902212	          0.32060882	          0.00000000	          0.13705113	          0.00000000	          0.00007164	          0.00000000	          0.00000000	          6.10411203	          0.00000000	
          3.26000000	          0.00735063	          0.00777054	         -0.00273771	         -0.00007499	          0.00000000	         -0.00002718	        -13.37154954	        738.44576899	        -50.71427846	          0.32218128	          0.00000000	          0.13752244	          0.00000000	          0.00004179	          0.00000000	          0.00000000	          5.88854672	          0.00000000	
          3.26500000	          0.00197184	         -0.00559455	         -0.00212367	         -0.00005054	          0.00000000	         -0.00001867	        -12.45411817	        735.84426544	        -50.27773515	          0.32374751	          0.00000000	          0.13799155	          0.00000000	          0.00001935	          0.00000000	          0.00000000	          5.68562431	          0.00000000	
          3.27000000	         -0.00163343	         -0.01372286	         -0.00156194	         -0.00003086	          0.00000000	         -0.00001174	        -11.55086896	        733.41740587	        -49.92998751	          0.32530431	          0.00000000	          0.13845842	          0.00000000	          0.00000342	          0.00000000	          0.00000000	          5.49377152	          0.00000000	
          3.27500000	         -0.00381623	         -0.01785008	         -0.00107819	         -0.00001580	          0.00000000	         -0.00000636	        -10.65139652	        731.19442553	        -49.65955931	          0.32684649	          0.00000000	          0.13892247	          0.00000000	         -0.00000706	          0.00000000	          0.00000000	          5.31076906	          0.00000000	
          3.28000000	         -0.00491420	         -0.01908506	         -0.00068269	         -0.00000490	          0.00000000	         -0.00000241	         -9.74568882	        729.20453865	        -49.45521028	          0.32836816	          0.00000000	          0.13938352	          0.00000000	         -0.00001323	          0.00000000	          0.00000000	          5.13396454	          0.00000000	
          3.28500000	         -0.00522965	         -0.01836763	         -0.00037508	          0.00000249	          0.00000000	          0.00000031	         -8.82605538	        727.47572309	        -49.30774442	          0.32986509	          0.00000000	          0.13984190	          0.00000000	         -0.00001613	          0.00000000	          0.00000000	          4.96064638	          0.00000000	
          3.29000000	         -0.00501835	         -0.01645490	         -0.00014815	          0.00000702	          0.00000000	          0.00000203	         -7.88694082	        726.03191711	        -49.21037575	          0.33133462	          0.00000000	          0.14029754	          0.00000000	         -0.00001672	          0.00000000	          0.00000000	          4.78874409	          0.00000000	
          3.29500000	         -0.00448595	         -0.01392692	          0.00000910	          0.00000938	          0.00000000	          0.00000298	         -6.92550411	        724.88975618	        -49.15822574	          0.33277423	          0.00000000	          0.14074960	          0.00000000	         -0.00001578	          0.00000000	          0.00000000	          4.61686125	          0.00000000	
          3.30000000	         -0.00378975	         -0.01120432	          0.00010922	          0.00001014	          0.00000000	          0.00000335	         -5.94082751	        724.05887149	        -49.14777546	          0.33418220	          0.00000000	          0.14119689	          0.00000000	         -0.00001392	          0.00000000	          0.00000000	          4.44385816	          0.00000000	
          3.30500000	         -0.00304356	         -0.00857225	          0.00016478	          0.00000983	          0.00000000	          0.00000332	         -4.93294523	        723.54895067	        -49.17709910	          0.33555819	          0.00000000	          0.14163933	          0.00000000	         -0.00001163	          0.00000000	          0.00000000	          4.26899401	          0.00000000	
          3.31000000	         -0.00232434	         -0.00620639	          0.00018738	          0.00000886	          0.00000000	          0.00000304	         -3.90294105	        723.36895383	        -49.24551533	          0.33690231	          0.00000000	          0.14207748	          0.00000000	         -0.00000924	          0.00000000	          0.00000000	          4.09190080	          0.00000000	
          3.31500000	         -0.00167929	         -0.00419836	          0.00018706	          0.00000753	          0.00000000	          0.00000262	         -2.85289518	        723.52534347	        -49.35224744	          0.33821481	          0.00000000	          0.14251213	          0.00000000	         -0.00000698	          0.00000000	          0.00000000	          3.91253000	          0.00000000	
          3.32000000	         -0.00113282	         -0.00257861	          0.00017205	          0.00000609	          0.00000000	          0.00000214	         -1.78534178	        724.02070619	        -49.49569839	          0.33949720	          0.00000000	          0.14294352	          0.00000000	         -0.00000498	          0.00000000	          0.00000000	          3.73106382	          0.00000000	
          3.32500000	         -0.00069279	         -0.00133596	          0.00014883	          0.00000468	          0.00000000	          0.00000167	         -0.70297021	        724.85327887	        -49.67357400	          0.34075359	          0.00000000	          0.14337121	          0.00000000	         -0.00000330	          0.00000000	          0.00000000	          3.54771946	          0.00000000	
          3.33000000	         -0.00035581	         -0.00043341	          0.00012216	          0.00000340	          0.00000000	          0.00000123	          0.39243489	        726.01301182	        -49.88377323	          0.34198919	          0.00000000	          0.14379382	          0.00000000	         -0.00000196	          0.00000000	          0.00000000	          3.36227937	          0.00000000	
          3.33500000	         -0.00011158	          0.00017965	          0.00009540	          0.00000232	          0.00000000	          0.00000085	          1.50126325	        727.48005941	        -50.12464153	          0.34320762	          0.00000000	          0.14420878	          0.00000000	         -0.00000095	          0.00000000	          0.00000000	          3.17430599	          0.00000000	
          3.34000000	          0.00005387	          0.00055859	          0.00007069	          0.00000144	          0.00000000	          0.00000054	          2.62545224	        729.22720887	        -50.39430890	          0.34441155	          0.00000000	          0.14461303	          0.00000000	         -0.00000023	          0.00000000	          0.00000000	          2.98312386	          0.00000000	
          3.34500000	          0.00015571	          0.00075742	          0.00004926	          0.00000076	          0.00000000	          0.00000030	          3.76777595	        731.22343495	        -50.69069172	          0.34560227	          0.00000000	          0.14500524	          0.00000000	          0.00000026	          0.00000000	          0.00000000	          2.78766336	          0.00000000	
          3.35000000	          0.00020870	          0.00082502	          0.00003161	          0.00000027	          0.00000000	          0.00000012	          4.93252632	        733.44107846	        -51.01152310	          0.34678069	          0.00000000	          0.14538633	          0.00000000	          0.00000055	          0.00000000	          0.00000000	          2.58699516	          0.00000000	
          3.35500000	          0.00022618	          0.00080312	          0.00001780	         -0.00000007	          0.00000000	         -0.00000000	          6.12506425	        735.85937460	        -51.35463312	          0.34794641	          0.00000000	          0.14575763	          0.00000000	          0.00000069	          0.00000000	          0.00000000	          2.38015391	          0.00000000	
          3.36000000	          0.00021950	          0.00072556	          0.00000754	         -0.00000028	          0.00000000	         -0.00000008	          7.35281105	        738.46693310	        -51.71965260	          0.34909660	          0.00000000	          0.14611981	          0.00000000	          0.00000073	          0.00000000	          0.00000000	          2.16654474	          0.00000000	
          3.36500000	          0.00019786	          0.00061844	          0.00000036	         -0.00000040	          0.00000000	         -0.00000013	          8.62538866	        741.26166288	        -52.10827952	          0.35022592	          0.00000000	          0.14647274	          0.00000000	          0.00000069	          0.00000000	          0.00000000	          1.94587362	          0.00000000	
